<svg width="28" height="28" viewBox="0 0 28 28" fill="none" xmlns="http://www.w3.org/2000/svg">
<g clip-path="url(#clip0_2001_13)">
<path d="M21.28 0.280029H6.72C4.93775 0.280029 3.22849 0.988027 1.96824 2.24827C0.707998 3.50852 0 5.21777 0 7.00003L0 21C0 22.7823 0.707998 24.4915 1.96824 25.7518C3.22849 27.012 4.93775 27.72 6.72 27.72H21.28C23.0623 27.72 24.7715 27.012 26.0318 25.7518C27.292 24.4915 28 22.7823 28 21V7.00003C28 5.21777 27.292 3.50852 26.0318 2.24827C24.7715 0.988027 23.0623 0.280029 21.28 0.280029ZM22.232 20.307V20.895C22.3111 20.8864 22.3912 20.8944 22.467 20.9185C22.5429 20.9426 22.6129 20.9823 22.6725 21.035C22.7321 21.0877 22.7801 21.1523 22.8133 21.2247C22.8466 21.297 22.8643 21.3754 22.8655 21.455V22.1177H16.8653V21.4539C16.8666 21.3743 16.8845 21.2958 16.9179 21.2235C16.9513 21.1513 16.9994 21.0868 17.0591 21.0342C17.1189 20.9815 17.189 20.942 17.2649 20.918C17.3408 20.8941 17.4209 20.8862 17.5 20.895V20.307C17.5 20.0504 17.6785 19.838 17.9177 19.7727L17.906 14.6814C17.7217 12.6549 15.9927 11.067 13.8892 11.067C11.7857 11.067 10.0567 12.6549 9.87233 14.6814L9.86067 19.7657C10.1267 19.8147 10.4813 20.0084 10.4907 20.307V20.895C10.5698 20.8864 10.6498 20.8944 10.7257 20.9185C10.8016 20.9426 10.8715 20.9823 10.9312 21.035C10.9908 21.0877 11.0388 21.1523 11.072 21.2247C11.1052 21.297 11.123 21.3754 11.1242 21.455V22.1177H5.124V21.4539C5.12532 21.3744 5.1432 21.296 5.1765 21.2239C5.2098 21.1517 5.2578 21.0872 5.31741 21.0346C5.37703 20.982 5.44696 20.9425 5.52274 20.9184C5.59851 20.8944 5.67847 20.8864 5.7575 20.895V20.307C5.7575 20.0119 5.992 19.7774 6.28717 19.7564V10.5455H5.7155L5.00383 8.17603H8.085V5.88236H19.6933V8.17603H22.9857L22.274 10.5444H21.7023V19.7564C21.9963 19.7762 22.232 20.013 22.232 20.307Z" fill="#D9D9D9"/>
</g>
<defs>
<clipPath id="clip0_2001_13">
<rect width="28" height="28" fill="white"/>
</clipPath>
</defs>
</svg>
